<svg xmlns="http://www.w3.org/2000/svg" viewBox="0 0 1920 980" width="100%" height="100%">
<rect x="0" y="0" width="1920" height="980" fill="#F7FAFC"/>
<rect x="36" y="18" width="1848" height="912" rx="34" fill="#ffffff" stroke="#D8E2E9" stroke-width="2"/>
<path d="M 120 555 C 360 470, 620 500, 890 570 S 1460 690, 1795 545" fill="none" stroke="#E8EEF3" stroke-width="54" stroke-linecap="round"/>
<path d="M 160 315 C 500 250, 830 280, 1140 360 S 1540 470, 1760 410" fill="none" stroke="#EEF3F7" stroke-width="30" stroke-linecap="round"/>
<a href="/bgc?bigscape_type=NRPS" target="_top"><title>NRPS · Click to open the NRPS BGC collection</title><rect x="54.0" y="160.0" width="592.0" height="340.0" rx="30" fill="#F6E4D3" stroke="#CB7A33" stroke-width="2.4"/><rect x="72.0" y="178.0" width="556.0" height="304.0" rx="22" fill="#ffffff" fill-opacity="0.78"/><text x="82.0" y="210.0" font-size="26" font-weight="800" fill="#203447" text-anchor="start" font-family="Segoe UI, Helvetica Neue, Arial, sans-serif"><tspan x="82.0" dy="0">NRPS</tspan></text><text x="82.0" y="240.0" font-size="13" font-weight="500" fill="#5C6F80" text-anchor="start" font-family="Segoe UI, Helvetica Neue, Arial, sans-serif"><tspan x="82.0" dy="0">nonribosomal peptide assembly</tspan><tspan x="82.0" dy="15.1">lines</tspan></text><text x="82.0" y="280.0" font-size="15" font-weight="700" fill="#7E4A16" text-anchor="start" font-family="Segoe UI, Helvetica Neue, Arial, sans-serif"><tspan x="82.0" dy="0">Modular condensation and peptide</tspan><tspan x="82.0" dy="17.4">elongation</tspan></text><rect x="80.0" y="322.0" width="540.0" height="60.0" rx="18" fill="#F6E4D3" stroke="#CB7A33" stroke-width="1.2"/><polygon points="92.0,330.0 134.1,330.0 146.0,352.0 134.1,374.0 92.0,374.0" fill="#CB7A33" stroke="#ffffff" stroke-width="1.4"/><text x="119.0" y="356.0" font-size="12" font-weight="700" fill="#ffffff" text-anchor="middle" font-family="Segoe UI, Helvetica Neue, Arial, sans-serif">C</text><polygon points="154.0,330.0 196.1,330.0 208.0,352.0 196.1,374.0 154.0,374.0" fill="#7E4A16" stroke="#ffffff" stroke-width="1.4"/><text x="181.0" y="356.0" font-size="12" font-weight="700" fill="#ffffff" text-anchor="middle" font-family="Segoe UI, Helvetica Neue, Arial, sans-serif">A</text><polygon points="216.0,330.0 258.1,330.0 270.0,352.0 258.1,374.0 216.0,374.0" fill="#CB7A33" stroke="#ffffff" stroke-width="1.4"/><text x="243.0" y="356.0" font-size="12" font-weight="700" fill="#ffffff" text-anchor="middle" font-family="Segoe UI, Helvetica Neue, Arial, sans-serif">T</text><polygon points="278.0,330.0 320.1,330.0 332.0,352.0 320.1,374.0 278.0,374.0" fill="#7E4A16" stroke="#ffffff" stroke-width="1.4"/><text x="305.0" y="356.0" font-size="12" font-weight="700" fill="#ffffff" text-anchor="middle" font-family="Segoe UI, Helvetica Neue, Arial, sans-serif">C</text><polygon points="340.0,330.0 382.1,330.0 394.0,352.0 382.1,374.0 340.0,374.0" fill="#CB7A33" stroke="#ffffff" stroke-width="1.4"/><text x="367.0" y="356.0" font-size="12" font-weight="700" fill="#ffffff" text-anchor="middle" font-family="Segoe UI, Helvetica Neue, Arial, sans-serif">A</text><polygon points="402.0,330.0 444.1,330.0 456.0,352.0 444.1,374.0 402.0,374.0" fill="#7E4A16" stroke="#ffffff" stroke-width="1.4"/><text x="429.0" y="356.0" font-size="12" font-weight="700" fill="#ffffff" text-anchor="middle" font-family="Segoe UI, Helvetica Neue, Arial, sans-serif">T</text><polygon points="464.0,330.0 517.0,330.0 532.0,352.0 517.0,374.0 464.0,374.0" fill="#CB7A33" stroke="#ffffff" stroke-width="1.4"/><text x="498.0" y="356.0" font-size="12" font-weight="700" fill="#ffffff" text-anchor="middle" font-family="Segoe UI, Helvetica Neue, Arial, sans-serif">TE</text><line x1="84.0" y1="410.0" x2="616.0" y2="410.0" stroke="#7E4A16" stroke-opacity="0.30" stroke-width="3.0" stroke-linecap="round"/><text x="82.0" y="446.0" font-size="15" font-weight="800" fill="#7E4A16" text-anchor="start" font-family="Segoe UI, Helvetica Neue, Arial, sans-serif"><tspan x="82.0" dy="0">Explore NRPS BGCs</tspan></text><rect x="78.0" y="446.0" width="544.0" height="36" rx="12" fill="#CB7A33" fill-opacity="0.14" stroke="#CB7A33" stroke-width="1.2"/><text x="350.0" y="469.0" font-size="13" font-weight="800" fill="#7E4A16" text-anchor="middle" font-family="Segoe UI, Helvetica Neue, Arial, sans-serif"><tspan x="350.0" dy="0">Click to open class-specific BGCs</tspan></text></a>
<a href="/bgc?bigscape_type=RiPPs" target="_top"><title>RiPPs · Click to open the RiPPs BGC collection</title><rect x="664.0" y="160.0" width="592.0" height="340.0" rx="30" fill="#DDEEF9" stroke="#3F8FC0" stroke-width="2.4"/><rect x="682.0" y="178.0" width="556.0" height="304.0" rx="22" fill="#ffffff" fill-opacity="0.78"/><text x="692.0" y="210.0" font-size="26" font-weight="800" fill="#203447" text-anchor="start" font-family="Segoe UI, Helvetica Neue, Arial, sans-serif"><tspan x="692.0" dy="0">RiPPs</tspan></text><text x="692.0" y="240.0" font-size="13" font-weight="500" fill="#5C6F80" text-anchor="start" font-family="Segoe UI, Helvetica Neue, Arial, sans-serif"><tspan x="692.0" dy="0">ribosomal peptides and</tspan><tspan x="692.0" dy="15.1">post-translational tailoring</tspan></text><text x="692.0" y="280.0" font-size="15" font-weight="700" fill="#1E608B" text-anchor="start" font-family="Segoe UI, Helvetica Neue, Arial, sans-serif"><tspan x="692.0" dy="0">Precursor-guided peptide maturation</tspan></text><rect x="690.0" y="322.0" width="540.0" height="60.0" rx="18" fill="#DDEEF9" stroke="#3F8FC0" stroke-width="1.2"/><polygon points="702.0,330.0 798.0,330.0 820.0,352.0 798.0,374.0 702.0,374.0" fill="#3F8FC0" stroke="#ffffff" stroke-width="1.4"/><text x="761.0" y="356.0" font-size="10" font-weight="700" fill="#ffffff" text-anchor="middle" font-family="Segoe UI, Helvetica Neue, Arial, sans-serif">precursor</text><polygon points="828.0,330.0 885.7,330.0 902.0,352.0 885.7,374.0 828.0,374.0" fill="#1E608B" stroke="#ffffff" stroke-width="1.4"/><text x="865.0" y="356.0" font-size="12" font-weight="700" fill="#ffffff" text-anchor="middle" font-family="Segoe UI, Helvetica Neue, Arial, sans-serif">PTM</text><polygon points="910.0,330.0 986.4,330.0 1008.0,352.0 986.4,374.0 910.0,374.0" fill="#3F8FC0" stroke="#ffffff" stroke-width="1.4"/><text x="959.0" y="356.0" font-size="10" font-weight="700" fill="#ffffff" text-anchor="middle" font-family="Segoe UI, Helvetica Neue, Arial, sans-serif">protease</text><polygon points="1016.0,330.0 1106.0,330.0 1128.0,352.0 1106.0,374.0 1016.0,374.0" fill="#1E608B" stroke="#ffffff" stroke-width="1.4"/><text x="1072.0" y="356.0" font-size="10" font-weight="700" fill="#ffffff" text-anchor="middle" font-family="Segoe UI, Helvetica Neue, Arial, sans-serif">transporter</text><line x1="694.0" y1="410.0" x2="1226.0" y2="410.0" stroke="#1E608B" stroke-opacity="0.30" stroke-width="3.0" stroke-linecap="round"/><text x="692.0" y="446.0" font-size="15" font-weight="800" fill="#1E608B" text-anchor="start" font-family="Segoe UI, Helvetica Neue, Arial, sans-serif"><tspan x="692.0" dy="0">Explore RiPP BGCs</tspan></text><rect x="688.0" y="446.0" width="544.0" height="36" rx="12" fill="#3F8FC0" fill-opacity="0.14" stroke="#3F8FC0" stroke-width="1.2"/><text x="960.0" y="469.0" font-size="13" font-weight="800" fill="#1E608B" text-anchor="middle" font-family="Segoe UI, Helvetica Neue, Arial, sans-serif"><tspan x="960.0" dy="0">Click to open class-specific BGCs</tspan></text></a>
<a href="/bgc?bigscape_type=Terpene" target="_top"><title>Terpene · Click to open the Terpene BGC collection</title><rect x="1274.0" y="160.0" width="592.0" height="340.0" rx="30" fill="#E1F0E1" stroke="#5E9A5D" stroke-width="2.4"/><rect x="1292.0" y="178.0" width="556.0" height="304.0" rx="22" fill="#ffffff" fill-opacity="0.78"/><text x="1302.0" y="210.0" font-size="26" font-weight="800" fill="#203447" text-anchor="start" font-family="Segoe UI, Helvetica Neue, Arial, sans-serif"><tspan x="1302.0" dy="0">Terpene</tspan></text><text x="1302.0" y="240.0" font-size="13" font-weight="500" fill="#5C6F80" text-anchor="start" font-family="Segoe UI, Helvetica Neue, Arial, sans-serif"><tspan x="1302.0" dy="0">isoprenoid and terpene synthase</tspan><tspan x="1302.0" dy="15.1">clusters</tspan></text><text x="1302.0" y="280.0" font-size="15" font-weight="700" fill="#38643B" text-anchor="start" font-family="Segoe UI, Helvetica Neue, Arial, sans-serif"><tspan x="1302.0" dy="0">Cyclized hydrocarbon scaffolds</tspan></text><rect x="1300.0" y="322.0" width="540.0" height="60.0" rx="18" fill="#E1F0E1" stroke="#5E9A5D" stroke-width="1.2"/><polygon points="1312.0,330.0 1380.6,330.0 1400.0,352.0 1380.6,374.0 1312.0,374.0" fill="#5E9A5D" stroke="#ffffff" stroke-width="1.4"/><text x="1356.0" y="356.0" font-size="10" font-weight="700" fill="#ffffff" text-anchor="middle" font-family="Segoe UI, Helvetica Neue, Arial, sans-serif">precursor</text><polygon points="1408.0,330.0 1498.0,330.0 1520.0,352.0 1498.0,374.0 1408.0,374.0" fill="#38643B" stroke="#ffffff" stroke-width="1.4"/><text x="1464.0" y="356.0" font-size="10" font-weight="700" fill="#ffffff" text-anchor="middle" font-family="Segoe UI, Helvetica Neue, Arial, sans-serif">PP synthase</text><polygon points="1528.0,330.0 1588.8,330.0 1606.0,352.0 1588.8,374.0 1528.0,374.0" fill="#5E9A5D" stroke="#ffffff" stroke-width="1.4"/><text x="1567.0" y="356.0" font-size="12" font-weight="700" fill="#ffffff" text-anchor="middle" font-family="Segoe UI, Helvetica Neue, Arial, sans-serif">TPS</text><polygon points="1614.0,330.0 1688.9,330.0 1710.0,352.0 1688.9,374.0 1614.0,374.0" fill="#38643B" stroke="#ffffff" stroke-width="1.4"/><text x="1662.0" y="356.0" font-size="10" font-weight="700" fill="#ffffff" text-anchor="middle" font-family="Segoe UI, Helvetica Neue, Arial, sans-serif">tailoring</text><line x1="1304.0" y1="410.0" x2="1836.0" y2="410.0" stroke="#38643B" stroke-opacity="0.30" stroke-width="3.0" stroke-linecap="round"/><text x="1302.0" y="446.0" font-size="15" font-weight="800" fill="#38643B" text-anchor="start" font-family="Segoe UI, Helvetica Neue, Arial, sans-serif"><tspan x="1302.0" dy="0">Explore Terpene BGCs</tspan></text><rect x="1298.0" y="446.0" width="544.0" height="36" rx="12" fill="#5E9A5D" fill-opacity="0.14" stroke="#5E9A5D" stroke-width="1.2"/><text x="1570.0" y="469.0" font-size="13" font-weight="800" fill="#38643B" text-anchor="middle" font-family="Segoe UI, Helvetica Neue, Arial, sans-serif"><tspan x="1570.0" dy="0">Click to open class-specific BGCs</tspan></text></a>
<a href="/bgc?bigscape_type=PKSI" target="_top"><title>PKSI · Click to open the PKSI BGC collection</title><rect x="54.0" y="554.0" width="592.0" height="340.0" rx="30" fill="#F8DFE7" stroke="#C95F7D" stroke-width="2.4"/><rect x="72.0" y="572.0" width="556.0" height="304.0" rx="22" fill="#ffffff" fill-opacity="0.78"/><text x="82.0" y="604.0" font-size="26" font-weight="800" fill="#203447" text-anchor="start" font-family="Segoe UI, Helvetica Neue, Arial, sans-serif"><tspan x="82.0" dy="0">PKSI</tspan></text><text x="82.0" y="634.0" font-size="13" font-weight="500" fill="#5C6F80" text-anchor="start" font-family="Segoe UI, Helvetica Neue, Arial, sans-serif"><tspan x="82.0" dy="0">modular type I polyketide</tspan><tspan x="82.0" dy="15.1">synthases</tspan></text><text x="82.0" y="674.0" font-size="15" font-weight="700" fill="#8C3450" text-anchor="start" font-family="Segoe UI, Helvetica Neue, Arial, sans-serif"><tspan x="82.0" dy="0">Iterative chain extension and</tspan><tspan x="82.0" dy="17.4">tailoring</tspan></text><rect x="80.0" y="716.0" width="540.0" height="60.0" rx="18" fill="#F8DFE7" stroke="#C95F7D" stroke-width="1.2"/><polygon points="92.0,724.0 134.1,724.0 146.0,746.0 134.1,768.0 92.0,768.0" fill="#C95F7D" stroke="#ffffff" stroke-width="1.4"/><text x="119.0" y="750.0" font-size="12" font-weight="700" fill="#ffffff" text-anchor="middle" font-family="Segoe UI, Helvetica Neue, Arial, sans-serif">KS</text><polygon points="154.0,724.0 196.1,724.0 208.0,746.0 196.1,768.0 154.0,768.0" fill="#8C3450" stroke="#ffffff" stroke-width="1.4"/><text x="181.0" y="750.0" font-size="12" font-weight="700" fill="#ffffff" text-anchor="middle" font-family="Segoe UI, Helvetica Neue, Arial, sans-serif">AT</text><polygon points="216.0,724.0 269.0,724.0 284.0,746.0 269.0,768.0 216.0,768.0" fill="#C95F7D" stroke="#ffffff" stroke-width="1.4"/><text x="250.0" y="750.0" font-size="12" font-weight="700" fill="#ffffff" text-anchor="middle" font-family="Segoe UI, Helvetica Neue, Arial, sans-serif">ACP</text><polygon points="292.0,724.0 334.1,724.0 346.0,746.0 334.1,768.0 292.0,768.0" fill="#8C3450" stroke="#ffffff" stroke-width="1.4"/><text x="319.0" y="750.0" font-size="12" font-weight="700" fill="#ffffff" text-anchor="middle" font-family="Segoe UI, Helvetica Neue, Arial, sans-serif">KR</text><polygon points="354.0,724.0 396.1,724.0 408.0,746.0 396.1,768.0 354.0,768.0" fill="#C95F7D" stroke="#ffffff" stroke-width="1.4"/><text x="381.0" y="750.0" font-size="12" font-weight="700" fill="#ffffff" text-anchor="middle" font-family="Segoe UI, Helvetica Neue, Arial, sans-serif">DH</text><polygon points="416.0,724.0 458.1,724.0 470.0,746.0 458.1,768.0 416.0,768.0" fill="#8C3450" stroke="#ffffff" stroke-width="1.4"/><text x="443.0" y="750.0" font-size="12" font-weight="700" fill="#ffffff" text-anchor="middle" font-family="Segoe UI, Helvetica Neue, Arial, sans-serif">ER</text><polygon points="478.0,724.0 531.0,724.0 546.0,746.0 531.0,768.0 478.0,768.0" fill="#C95F7D" stroke="#ffffff" stroke-width="1.4"/><text x="512.0" y="750.0" font-size="12" font-weight="700" fill="#ffffff" text-anchor="middle" font-family="Segoe UI, Helvetica Neue, Arial, sans-serif">TE</text><line x1="84.0" y1="804.0" x2="616.0" y2="804.0" stroke="#8C3450" stroke-opacity="0.30" stroke-width="3.0" stroke-linecap="round"/><text x="82.0" y="840.0" font-size="15" font-weight="800" fill="#8C3450" text-anchor="start" font-family="Segoe UI, Helvetica Neue, Arial, sans-serif"><tspan x="82.0" dy="0">Explore PKSI BGCs</tspan></text><rect x="78.0" y="840.0" width="544.0" height="36" rx="12" fill="#C95F7D" fill-opacity="0.14" stroke="#C95F7D" stroke-width="1.2"/><text x="350.0" y="863.0" font-size="13" font-weight="800" fill="#8C3450" text-anchor="middle" font-family="Segoe UI, Helvetica Neue, Arial, sans-serif"><tspan x="350.0" dy="0">Click to open class-specific BGCs</tspan></text></a>
<a href="/bgc?bigscape_type=Saccharides" target="_top"><title>Saccharides · Click to open the Saccharides BGC collection</title><rect x="664.0" y="554.0" width="592.0" height="340.0" rx="30" fill="#F8EFCF" stroke="#C7A13A" stroke-width="2.4"/><rect x="682.0" y="572.0" width="556.0" height="304.0" rx="22" fill="#ffffff" fill-opacity="0.78"/><text x="692.0" y="604.0" font-size="26" font-weight="800" fill="#203447" text-anchor="start" font-family="Segoe UI, Helvetica Neue, Arial, sans-serif"><tspan x="692.0" dy="0">Saccharides</tspan></text><text x="692.0" y="634.0" font-size="13" font-weight="500" fill="#5C6F80" text-anchor="start" font-family="Segoe UI, Helvetica Neue, Arial, sans-serif"><tspan x="692.0" dy="0">glycan and saccharide biosynthetic</tspan><tspan x="692.0" dy="15.1">clusters</tspan></text><text x="692.0" y="674.0" font-size="15" font-weight="700" fill="#7E6518" text-anchor="start" font-family="Segoe UI, Helvetica Neue, Arial, sans-serif"><tspan x="692.0" dy="0">Sugar unit assembly and export</tspan></text><rect x="690.0" y="716.0" width="540.0" height="60.0" rx="18" fill="#F8EFCF" stroke="#C7A13A" stroke-width="1.2"/><polygon points="702.0,724.0 739.4,724.0 750.0,746.0 739.4,768.0 702.0,768.0" fill="#C7A13A" stroke="#ffffff" stroke-width="1.4"/><text x="726.0" y="750.0" font-size="12" font-weight="700" fill="#ffffff" text-anchor="middle" font-family="Segoe UI, Helvetica Neue, Arial, sans-serif">GT</text><polygon points="758.0,724.0 795.4,724.0 806.0,746.0 795.4,768.0 758.0,768.0" fill="#7E6518" stroke="#ffffff" stroke-width="1.4"/><text x="782.0" y="750.0" font-size="12" font-weight="700" fill="#ffffff" text-anchor="middle" font-family="Segoe UI, Helvetica Neue, Arial, sans-serif">GT</text><polygon points="814.0,724.0 885.8,724.0 906.0,746.0 885.8,768.0 814.0,768.0" fill="#C7A13A" stroke="#ffffff" stroke-width="1.4"/><text x="860.0" y="750.0" font-size="10" font-weight="700" fill="#ffffff" text-anchor="middle" font-family="Segoe UI, Helvetica Neue, Arial, sans-serif">sugar biosyn</text><polygon points="914.0,724.0 962.4,724.0 976.0,746.0 962.4,768.0 914.0,768.0" fill="#7E6518" stroke="#ffffff" stroke-width="1.4"/><text x="945.0" y="750.0" font-size="12" font-weight="700" fill="#ffffff" text-anchor="middle" font-family="Segoe UI, Helvetica Neue, Arial, sans-serif">mod</text><polygon points="984.0,724.0 1043.3,724.0 1060.0,746.0 1043.3,768.0 984.0,768.0" fill="#C7A13A" stroke="#ffffff" stroke-width="1.4"/><text x="1022.0" y="750.0" font-size="12" font-weight="700" fill="#ffffff" text-anchor="middle" font-family="Segoe UI, Helvetica Neue, Arial, sans-serif">export</text><line x1="694.0" y1="804.0" x2="1226.0" y2="804.0" stroke="#7E6518" stroke-opacity="0.30" stroke-width="3.0" stroke-linecap="round"/><text x="692.0" y="840.0" font-size="15" font-weight="800" fill="#7E6518" text-anchor="start" font-family="Segoe UI, Helvetica Neue, Arial, sans-serif"><tspan x="692.0" dy="0">Explore Saccharide BGCs</tspan></text><rect x="688.0" y="840.0" width="544.0" height="36" rx="12" fill="#C7A13A" fill-opacity="0.14" stroke="#C7A13A" stroke-width="1.2"/><text x="960.0" y="863.0" font-size="13" font-weight="800" fill="#7E6518" text-anchor="middle" font-family="Segoe UI, Helvetica Neue, Arial, sans-serif"><tspan x="960.0" dy="0">Click to open class-specific BGCs</tspan></text></a>
<a href="/bgc?bigscape_type=Other" target="_top"><title>Other · Click to open the Other BGC collection</title><rect x="1274.0" y="554.0" width="592.0" height="340.0" rx="30" fill="#E7EBEE" stroke="#7A8591" stroke-width="2.4"/><rect x="1292.0" y="572.0" width="556.0" height="304.0" rx="22" fill="#ffffff" fill-opacity="0.78"/><text x="1302.0" y="604.0" font-size="26" font-weight="800" fill="#203447" text-anchor="start" font-family="Segoe UI, Helvetica Neue, Arial, sans-serif"><tspan x="1302.0" dy="0">Other</tspan></text><text x="1302.0" y="634.0" font-size="13" font-weight="500" fill="#5C6F80" text-anchor="start" font-family="Segoe UI, Helvetica Neue, Arial, sans-serif"><tspan x="1302.0" dy="0">diverse and non-canonical</tspan><tspan x="1302.0" dy="15.1">biosynthetic logics</tspan></text><text x="1302.0" y="674.0" font-size="15" font-weight="700" fill="#49545F" text-anchor="start" font-family="Segoe UI, Helvetica Neue, Arial, sans-serif"><tspan x="1302.0" dy="0">Hybrid, rare, and miscellaneous</tspan><tspan x="1302.0" dy="17.4">classes</tspan></text><rect x="1300.0" y="716.0" width="540.0" height="60.0" rx="18" fill="#E7EBEE" stroke="#7A8591" stroke-width="1.2"/><polygon points="1312.0,724.0 1369.7,724.0 1386.0,746.0 1369.7,768.0 1312.0,768.0" fill="#7A8591" stroke="#ffffff" stroke-width="1.4"/><text x="1349.0" y="750.0" font-size="12" font-weight="700" fill="#ffffff" text-anchor="middle" font-family="Segoe UI, Helvetica Neue, Arial, sans-serif">core</text><polygon points="1394.0,724.0 1451.7,724.0 1468.0,746.0 1451.7,768.0 1394.0,768.0" fill="#49545F" stroke="#ffffff" stroke-width="1.4"/><text x="1431.0" y="750.0" font-size="12" font-weight="700" fill="#ffffff" text-anchor="middle" font-family="Segoe UI, Helvetica Neue, Arial, sans-serif">tailor</text><polygon points="1476.0,724.0 1521.2,724.0 1534.0,746.0 1521.2,768.0 1476.0,768.0" fill="#7A8591" stroke="#ffffff" stroke-width="1.4"/><text x="1505.0" y="750.0" font-size="12" font-weight="700" fill="#ffffff" text-anchor="middle" font-family="Segoe UI, Helvetica Neue, Arial, sans-serif">reg</text><polygon points="1542.0,724.0 1615.3,724.0 1636.0,746.0 1615.3,768.0 1542.0,768.0" fill="#49545F" stroke="#ffffff" stroke-width="1.4"/><text x="1589.0" y="750.0" font-size="10" font-weight="700" fill="#ffffff" text-anchor="middle" font-family="Segoe UI, Helvetica Neue, Arial, sans-serif">transport</text><line x1="1304.0" y1="804.0" x2="1836.0" y2="804.0" stroke="#49545F" stroke-opacity="0.30" stroke-width="3.0" stroke-linecap="round"/><text x="1302.0" y="840.0" font-size="15" font-weight="800" fill="#49545F" text-anchor="start" font-family="Segoe UI, Helvetica Neue, Arial, sans-serif"><tspan x="1302.0" dy="0">Explore Other BGCs</tspan></text><rect x="1298.0" y="840.0" width="544.0" height="36" rx="12" fill="#7A8591" fill-opacity="0.14" stroke="#7A8591" stroke-width="1.2"/><text x="1570.0" y="863.0" font-size="13" font-weight="800" fill="#49545F" text-anchor="middle" font-family="Segoe UI, Helvetica Neue, Arial, sans-serif"><tspan x="1570.0" dy="0">Click to open class-specific BGCs</tspan></text></a>
</svg>