<svg xmlns="http://www.w3.org/2000/svg" viewBox="0 0 600 280" width="100%" height="100%" style="background:#fbfdff;font-family:system-ui,sans-serif"><line x1="-11" y1="242" x2="611" y2="242" stroke="#d4dfef" stroke-width="2"/>
<rect x="-1" y="239" width="62" height="3" rx="5" fill="#3b6fb2" opacity="0.85"/>
<text x="30.0" y="231" text-anchor="middle" font-size="12" fill="#42586b" font-weight="700">45</text>
<text x="30.0" y="258" text-anchor="middle" font-size="11" fill="#667b8f">1970-1999</text>
<rect x="89" y="239" width="62" height="3" rx="5" fill="#5c8a8f" opacity="0.85"/>
<text x="120.0" y="231" text-anchor="middle" font-size="12" fill="#42586b" font-weight="700">290</text>
<text x="120.0" y="258" text-anchor="middle" font-size="11" fill="#667b8f">2000-2004</text>
<rect x="179" y="233.1441798941799" width="62" height="8.855820105820106" rx="5" fill="#9b7ea6" opacity="0.85"/>
<text x="210.0" y="225.1441798941799" text-anchor="middle" font-size="12" fill="#42586b" font-weight="700">1,854</text>
<text x="210.0" y="258" text-anchor="middle" font-size="11" fill="#667b8f">2005-2009</text>
<rect x="269" y="149.4676660787772" width="62" height="92.53233392122281" rx="5" fill="#c4a06a" opacity="0.85"/>
<text x="300.0" y="141.4676660787772" text-anchor="middle" font-size="12" fill="#42586b" font-weight="700">19,372</text>
<text x="300.0" y="258" text-anchor="middle" font-size="11" fill="#667b8f">2010-2014</text>
<rect x="359" y="127.24691358024691" width="62" height="114.75308641975309" rx="5" fill="#2c5f8a" opacity="0.85"/>
<text x="390.0" y="119.24691358024691" text-anchor="middle" font-size="12" fill="#42586b" font-weight="700">24,024</text>
<text x="390.0" y="258" text-anchor="middle" font-size="11" fill="#667b8f">2015-2019</text>
<rect x="449" y="239" width="62" height="3" rx="5" fill="#7a9eb1" opacity="0.85"/>
<text x="480.0" y="231" text-anchor="middle" font-size="12" fill="#42586b" font-weight="700">596</text>
<text x="480.0" y="258" text-anchor="middle" font-size="11" fill="#667b8f">2020-2025</text>
<rect x="539" y="112.0" width="62" height="130.0" rx="5" fill="#8d8fb5" opacity="0.85"/>
<text x="570.0" y="104.0" text-anchor="middle" font-size="12" fill="#42586b" font-weight="700">27,216</text>
<text x="570.0" y="258" text-anchor="middle" font-size="11" fill="#667b8f">Unknown</text>
</svg>