<svg xmlns="http://www.w3.org/2000/svg" viewBox="0 0 600 280" width="100%" height="100%" style="background:#fbfdff;font-family:system-ui,sans-serif"><line x1="34" y1="242" x2="566" y2="242" stroke="#d4dfef" stroke-width="2"/>
<rect x="44" y="159.81286481438246" width="62" height="82.18713518561755" rx="5" fill="#3b6fb2" opacity="0.85"/>
<text x="75.0" y="151.81286481438246" text-anchor="middle" font-size="12" fill="#42586b" font-weight="700">10,831</text>
<text x="75.0" y="258" text-anchor="middle" font-size="11" fill="#667b8f">1</text>
<rect x="134" y="112.0" width="62" height="130.0" rx="5" fill="#5c8a8f" opacity="0.85"/>
<text x="165.0" y="104.0" text-anchor="middle" font-size="12" fill="#42586b" font-weight="700">17,132</text>
<text x="165.0" y="258" text-anchor="middle" font-size="11" fill="#667b8f">2-4</text>
<rect x="224" y="169.55603548914314" width="62" height="72.44396451085687" rx="5" fill="#9b7ea6" opacity="0.85"/>
<text x="255.0" y="161.55603548914314" text-anchor="middle" font-size="12" fill="#42586b" font-weight="700">9,547</text>
<text x="255.0" y="258" text-anchor="middle" font-size="11" fill="#667b8f">5-8</text>
<rect x="314" y="138.7178379640439" width="62" height="103.2821620359561" rx="5" fill="#c4a06a" opacity="0.85"/>
<text x="345.0" y="130.7178379640439" text-anchor="middle" font-size="12" fill="#42586b" font-weight="700">13,611</text>
<text x="345.0" y="258" text-anchor="middle" font-size="11" fill="#667b8f">9-30</text>
<rect x="404" y="216.96672892832126" width="62" height="25.03327107167873" rx="5" fill="#2c5f8a" opacity="0.85"/>
<text x="435.0" y="208.96672892832126" text-anchor="middle" font-size="12" fill="#42586b" font-weight="700">3,299</text>
<text x="435.0" y="258" text-anchor="middle" font-size="11" fill="#667b8f">31-50</text>
<rect x="494" y="187.95727293952837" width="62" height="54.04272706047163" rx="5" fill="#7a9eb1" opacity="0.85"/>
<text x="525.0" y="179.95727293952837" text-anchor="middle" font-size="12" fill="#42586b" font-weight="700">7,122</text>
<text x="525.0" y="258" text-anchor="middle" font-size="11" fill="#667b8f">>50</text>
</svg>