<svg xmlns="http://www.w3.org/2000/svg" viewBox="0 0 600 280" width="100%" height="100%" style="background:#fbfdff;font-family:system-ui,sans-serif"><circle cx="150" cy="135" r="100" fill="none" stroke="#3b6fb2" stroke-width="56" stroke-dasharray="236.31155211621214 628.318" stroke-dashoffset="-0.0" transform="rotate(-90 150 135)" opacity="0.92"/>
<circle cx="150" cy="135" r="100" fill="none" stroke="#5c8a8f" stroke-width="56" stroke-dasharray="231.27659346599856 628.318" stroke-dashoffset="-236.31155211621214" transform="rotate(-90 150 135)" opacity="0.92"/>
<circle cx="150" cy="135" r="100" fill="none" stroke="#9b7ea6" stroke-width="56" stroke-dasharray="60.852113343201516 628.318" stroke-dashoffset="-467.58814558221076" transform="rotate(-90 150 135)" opacity="0.92"/>
<circle cx="150" cy="135" r="100" fill="none" stroke="#c4a06a" stroke-width="56" stroke-dasharray="47.97812699157116 628.318" stroke-dashoffset="-528.4402589254122" transform="rotate(-90 150 135)" opacity="0.92"/>
<circle cx="150" cy="135" r="100" fill="none" stroke="#2c5f8a" stroke-width="56" stroke-dasharray="42.01104700270951 628.318" stroke-dashoffset="-576.4183859169834" transform="rotate(-90 150 135)" opacity="0.92"/>
<circle cx="150" cy="135" r="100" fill="none" stroke="#7a9eb1" stroke-width="56" stroke-dasharray="5.544618543442115 628.318" stroke-dashoffset="-618.4294329196929" transform="rotate(-90 150 135)" opacity="0.92"/>
<circle cx="150" cy="135" r="100" fill="none" stroke="#8d8fb5" stroke-width="56" stroke-dasharray="4.274227364155623 628.318" stroke-dashoffset="-623.9740514631351" transform="rotate(-90 150 135)" opacity="0.92"/>
<circle cx="150" cy="135" r="100" fill="none" stroke="#6da38a" stroke-width="56" stroke-dasharray="0.06972117270936229 628.318" stroke-dashoffset="-628.2482788272905" transform="rotate(-90 150 135)" opacity="0.92"/>
<rect x="310" y="34" width="12" height="12" rx="3" fill="#3b6fb2"/>
<text x="328" y="45" font-size="11" fill="#42586b">RiPPs</text>
<text x="328" y="58" font-size="10" fill="#889aaa">1,257,460</text>
<rect x="310" y="64" width="12" height="12" rx="3" fill="#5c8a8f"/>
<text x="328" y="75" font-size="11" fill="#42586b">Terpene</text>
<text x="328" y="88" font-size="10" fill="#889aaa">1,230,668</text>
<rect x="310" y="94" width="12" height="12" rx="3" fill="#9b7ea6"/>
<text x="328" y="105" font-size="11" fill="#42586b">Others</text>
<text x="328" y="118" font-size="10" fill="#889aaa">323,806</text>
<rect x="310" y="124" width="12" height="12" rx="3" fill="#c4a06a"/>
<text x="328" y="135" font-size="11" fill="#42586b">NRPS</text>
<text x="328" y="148" font-size="10" fill="#889aaa">255,301</text>
<rect x="310" y="154" width="12" height="12" rx="3" fill="#2c5f8a"/>
<text x="328" y="165" font-size="11" fill="#42586b">PKSother</text>
<text x="328" y="178" font-size="10" fill="#889aaa">223,549</text>
<rect x="310" y="184" width="12" height="12" rx="3" fill="#7a9eb1"/>
<text x="328" y="195" font-size="11" fill="#42586b">PKSI</text>
<text x="328" y="208" font-size="10" fill="#889aaa">29,504</text>
<rect x="310" y="214" width="12" height="12" rx="3" fill="#8d8fb5"/>
<text x="328" y="225" font-size="11" fill="#42586b">PKS-NRP_Hybrids</text>
<text x="328" y="238" font-size="10" fill="#889aaa">22,744</text>
<rect x="310" y="244" width="12" height="12" rx="3" fill="#6da38a"/>
<text x="328" y="255" font-size="11" fill="#42586b">Saccharides</text>
<text x="328" y="268" font-size="10" fill="#889aaa">371</text>
</svg>